<svg width="38" height="38" viewBox="0 0 38 38" fill="none" xmlns="http://www.w3.org/2000/svg">
<path d="M19 19C17.2583 19 15.7673 18.3799 14.5271 17.1396C13.2868 15.8993 12.6666 14.4083 12.6666 12.6667C12.6666 10.925 13.2868 9.43404 14.5271 8.19376C15.7673 6.95348 17.2583 6.33334 19 6.33334C20.7416 6.33334 22.2326 6.95348 23.4729 8.19376C24.7132 9.43404 25.3333 10.925 25.3333 12.6667C25.3333 14.4083 24.7132 15.8993 23.4729 17.1396C22.2326 18.3799 20.7416 19 19 19ZM6.33331 31.6667V27.2333C6.33331 26.3361 6.56422 25.5115 7.02602 24.7594C7.48783 24.0073 8.10137 23.4333 8.86665 23.0375C10.5028 22.2195 12.1653 21.6059 13.8541 21.1969C15.543 20.7879 17.2583 20.5833 19 20.5833C20.7416 20.5833 22.4569 20.7879 24.1458 21.1969C25.8347 21.6059 27.4972 22.2195 29.1333 23.0375C29.8986 23.4333 30.5121 24.0073 30.9739 24.7594C31.4357 25.5115 31.6666 26.3361 31.6666 27.2333V31.6667H6.33331ZM9.49998 28.5H28.5V27.2333C28.5 26.9431 28.4274 26.6792 28.2823 26.4417C28.1371 26.2042 27.9458 26.0195 27.7083 25.8875C26.2833 25.175 24.8451 24.6406 23.3937 24.2844C21.9423 23.9281 20.4778 23.75 19 23.75C17.5222 23.75 16.0576 23.9281 14.6062 24.2844C13.1548 24.6406 11.7166 25.175 10.2916 25.8875C10.0541 26.0195 9.86283 26.2042 9.71769 26.4417C9.57255 26.6792 9.49998 26.9431 9.49998 27.2333V28.5ZM19 15.8333C19.8708 15.8333 20.6163 15.5233 21.2364 14.9031C21.8566 14.283 22.1666 13.5375 22.1666 12.6667C22.1666 11.7958 21.8566 11.0504 21.2364 10.4302C20.6163 9.81008 19.8708 9.50001 19 9.50001C18.1291 9.50001 17.3837 9.81008 16.7635 10.4302C16.1434 11.0504 15.8333 11.7958 15.8333 12.6667C15.8333 13.5375 16.1434 14.283 16.7635 14.9031C17.3837 15.5233 18.1291 15.8333 19 15.8333Z" fill="#E8EAED"/>
</svg>
