<svg width="57" height="30" viewBox="0 0 57 30" fill="none" xmlns="http://www.w3.org/2000/svg">
<path fill-rule="evenodd" clip-rule="evenodd" d="M49.5 6.5C49.8978 6.5 50.2794 6.64926 50.5607 6.91493C50.842 7.18061 51 7.54094 51 7.91667V12.1667H55.5C55.8978 12.1667 56.2794 12.3159 56.5607 12.5816C56.842 12.8473 57 13.2076 57 13.5833C57 13.9591 56.842 14.3194 56.5607 14.5851C56.2794 14.8507 55.8978 15 55.5 15H51V19.25C51 19.6257 50.842 19.9861 50.5607 20.2517C50.2794 20.5174 49.8978 20.6667 49.5 20.6667C49.1022 20.6667 48.7206 20.5174 48.4393 20.2517C48.158 19.9861 48 19.6257 48 19.25V15H43.5C43.1022 15 42.7206 14.8507 42.4393 14.5851C42.158 14.3194 42 13.9591 42 13.5833C42 13.2076 42.158 12.8473 42.4393 12.5816C42.7206 12.3159 43.1022 12.1667 43.5 12.1667H48V7.91667C48 7.54094 48.158 7.18061 48.4393 6.91493C48.7206 6.64926 49.1022 6.5 49.5 6.5Z" fill="white"/>
<path d="M5.98262 3.7875C6.44076 2.6625 7.20264 1.70387 8.17372 1.03056C9.14479 0.357256 10.2823 -0.00108615 11.4451 2.47302e-06H26.5548C28.9298 2.47302e-06 31.0768 1.49 32.0126 3.7875L33.8936 8.4075C34.0717 8.845 34.3923 9.205 34.7961 9.4175C35.9836 10.0425 36.8267 11.205 37.088 12.5725L37.8836 16.77C37.9627 17.1733 38.0015 17.5817 38 17.995V19.0275C38 21.0625 37.0737 22.885 35.625 24.02V28.75C35.625 29.0815 35.4998 29.3995 35.2771 29.6339C35.0544 29.8683 34.7524 30 34.4375 30H29.6875C29.3725 30 29.0705 29.8683 28.8478 29.6339C28.6251 29.3995 28.5 29.0815 28.5 28.75V25.405C25.4315 25.525 21.9806 25.625 19 25.625C16.0194 25.625 12.5685 25.525 9.49999 25.405V28.75C9.49999 29.0815 9.37488 29.3995 9.15218 29.6339C8.92948 29.8683 8.62743 30 8.31249 30H3.5625C3.24755 30 2.94551 29.8683 2.72281 29.6339C2.50011 29.3995 2.375 29.0815 2.375 28.75V24.02C0.926249 22.885 0 21.0625 0 19.0275V17.995C0.000398597 17.5836 0.0393793 17.1733 0.116375 16.77L0.911999 12.57C1.17325 11.205 2.01637 10.04 3.2015 9.4175C3.60801 9.20537 3.92899 8.8471 4.10637 8.4075L5.98737 3.7875H5.98262ZM7.12262 20C7.7525 20 8.3566 19.7366 8.80199 19.2678C9.24739 18.7989 9.49761 18.163 9.49761 17.5C9.49761 16.837 9.24739 16.2011 8.80199 15.7322C8.3566 15.2634 7.7525 15 7.12262 15C6.49273 15 5.88864 15.2634 5.44324 15.7322C4.99784 16.2011 4.74762 16.837 4.74762 17.5C4.74762 18.163 4.99784 18.7989 5.44324 19.2678C5.88864 19.7366 6.49273 20 7.12262 20ZM30.8726 20C31.5025 20 32.1066 19.7366 32.552 19.2678C32.9974 18.7989 33.2476 18.163 33.2476 17.5C33.2476 16.837 32.9974 16.2011 32.552 15.7322C32.1066 15.2634 31.5025 15 30.8726 15C30.2427 15 29.6386 15.2634 29.1932 15.7322C28.7478 16.2011 28.4976 16.837 28.4976 17.5C28.4976 18.163 28.7478 18.7989 29.1932 19.2678C29.6386 19.7366 30.2427 20 30.8726 20ZM14.2476 15C13.6177 15 13.0136 15.2634 12.5682 15.7322C12.1228 16.2011 11.8726 16.837 11.8726 17.5C11.8726 18.163 12.1228 18.7989 12.5682 19.2678C13.0136 19.7366 13.6177 20 14.2476 20H23.7476C24.3775 20 24.9816 19.7366 25.427 19.2678C25.8724 18.7989 26.1226 18.163 26.1226 17.5C26.1226 16.837 25.8724 16.2011 25.427 15.7322C24.9816 15.2634 24.3775 15 23.7476 15H14.2476ZM6.89937 7.9725C6.80653 8.17414 6.76582 8.39796 6.78132 8.62143C6.79683 8.8449 6.86801 9.06013 6.98769 9.24542C7.10737 9.43072 7.27133 9.57954 7.46305 9.6769C7.65476 9.77426 7.86747 9.81672 8.07974 9.8C10.241 9.6175 16.036 9.375 18.9976 9.375C21.9592 9.375 27.7566 9.6175 29.9155 9.8C30.1277 9.81672 30.3404 9.77426 30.5322 9.6769C30.7239 9.57954 30.8878 9.43072 31.0075 9.24542C31.1272 9.06013 31.1984 8.8449 31.2139 8.62143C31.2294 8.39796 31.1887 8.17414 31.0958 7.9725L28.8253 3.19C28.7266 2.98263 28.575 2.80827 28.3876 2.68641C28.2001 2.56455 27.9841 2.50001 27.7637 2.5H10.2315C10.0111 2.50001 9.79514 2.56455 9.60765 2.68641C9.42016 2.80827 9.26858 2.98263 9.16986 3.19L6.89937 7.9725Z" fill="white"/>
</svg>
