<svg width="272" height="253" viewBox="0 0 272 253" fill="none" xmlns="http://www.w3.org/2000/svg">
<path d="M75.0238 65.8013C77.1699 60.5138 80.7387 56.0082 85.2874 52.8436C89.8361 49.6791 95.1645 47.9949 100.611 48H171.388C182.513 48 192.57 55.003 196.954 65.8013L205.765 87.5153C206.599 89.5715 208.101 91.2635 209.992 92.2623C215.555 95.1998 219.504 100.664 220.728 107.091L224.455 126.819C224.825 128.715 225.007 130.634 225 132.577V137.429C225 146.994 220.661 155.56 213.875 160.894V183.125C213.875 184.683 213.289 186.177 212.246 187.279C211.202 188.381 209.788 189 208.312 189H186.062C184.587 189 183.172 188.381 182.129 187.279C181.086 186.177 180.5 184.683 180.5 183.125V167.403C166.126 167.967 149.962 168.438 136 168.438C122.038 168.438 105.873 167.967 91.4999 167.403V183.125C91.4999 184.683 90.9139 186.177 89.8707 187.279C88.8276 188.381 87.4127 189 85.9375 189H63.6875C62.2122 189 60.7974 188.381 59.7542 187.279C58.711 186.177 58.125 184.683 58.125 183.125V160.894C51.3387 155.56 47 146.994 47 137.429V132.577C47.0019 130.643 47.1845 128.715 47.5451 126.819L51.272 107.079C52.4957 100.664 56.4451 95.188 61.9965 92.2623C63.9007 91.2652 65.4042 89.5814 66.2351 87.5153L75.0461 65.8013H75.0238ZM80.3638 142C83.3144 142 86.1441 140.762 88.2304 138.559C90.3167 136.355 91.4888 133.366 91.4888 130.25C91.4888 127.134 90.3167 124.145 88.2304 121.942C86.1441 119.738 83.3144 118.5 80.3638 118.5C77.4133 118.5 74.5836 119.738 72.4973 121.942C70.4109 124.145 69.2388 127.134 69.2388 130.25C69.2388 133.366 70.4109 136.355 72.4973 138.559C74.5836 140.762 77.4133 142 80.3638 142ZM191.614 142C194.564 142 197.394 140.762 199.48 138.559C201.567 136.355 202.739 133.366 202.739 130.25C202.739 127.134 201.567 124.145 199.48 121.942C197.394 119.738 194.564 118.5 191.614 118.5C188.663 118.5 185.833 119.738 183.747 121.942C181.661 124.145 180.489 127.134 180.489 130.25C180.489 133.366 181.661 136.355 183.747 138.559C185.833 140.762 188.663 142 191.614 142ZM113.739 118.5C110.788 118.5 107.959 119.738 105.872 121.942C103.786 124.145 102.614 127.134 102.614 130.25C102.614 133.366 103.786 136.355 105.872 138.559C107.959 140.762 110.788 142 113.739 142H158.239C161.189 142 164.019 140.762 166.105 138.559C168.192 136.355 169.364 133.366 169.364 130.25C169.364 127.134 168.192 124.145 166.105 121.942C164.019 119.738 161.189 118.5 158.239 118.5H113.739ZM79.3181 85.4708C78.8832 86.4184 78.6925 87.4704 78.7652 88.5207C78.8378 89.571 79.1712 90.5826 79.7318 91.4535C80.2924 92.3244 81.0604 93.0238 81.9585 93.4814C82.8565 93.939 83.8529 94.1386 84.8472 94.06C94.9709 93.2023 122.116 92.0625 135.989 92.0625C149.862 92.0625 177.018 93.2023 187.13 94.06C188.125 94.1386 189.121 93.939 190.019 93.4814C190.917 93.0238 191.685 92.3244 192.246 91.4535C192.806 90.5826 193.14 89.571 193.212 88.5207C193.285 87.4704 193.094 86.4184 192.659 85.4708L182.024 62.993C181.562 62.0184 180.852 61.1989 179.973 60.6261C179.095 60.0534 178.083 59.75 177.051 59.75H94.9264C93.8943 59.75 92.8825 60.0534 92.0043 60.6261C91.126 61.1989 90.416 62.0184 89.9536 62.993L79.3181 85.4708Z" fill="white"/>
<path d="M267 126.5C267 193.268 208.696 248 136 248C63.3035 248 5 193.268 5 126.5C5 59.7322 63.3035 5 136 5C208.696 5 267 59.7322 267 126.5Z" stroke="#D9D9D9" stroke-width="10"/>
</svg>
